PathFileType	4	(X/Y/Z)	/Users/itak/Documents/Research/Walk-IL/dataset/trc/00484_00167.trc
DataRate	CameraRate	NumFrames	NumMarkers	Units	OrigDataRate	OrigDataStartFrame	OrigNumFrames
100.000000	100.000000	4	53	mm	100.000000	227	606
Frame#	Time	RPSI			LPSI			L3			STRN			T10			C7			CLAV			RBAK			LBAK			LSHO			LUPA			LAEL			LAOL			LWTS			LWPS			LFRA			LIFD			LHPS			LHTS			RSHO			RUPA			RAEL			RAOL			RWTS			RWPS			RFRA			RIFD			RHTS			RHPS			RBHD			LFHD			RFHD			LBHD			LHIP			RHIP			RASI			LASI			LKNE			LTHI			LANK			LTIP			LTOE			LMT1			LMT5			LHEE			RKNE			RTHI			RANK			RTIP			RTOE			RMT1			RMT5			RHEE			
		X1	Y1	Z1	X2	Y2	Z2	X3	Y3	Z3	X4	Y4	Z4	X5	Y5	Z5	X6	Y6	Z6	X7	Y7	Z7	X8	Y8	Z8	X9	Y9	Z9	X10	Y10	Z10	X11	Y11	Z11	X12	Y12	Z12	X13	Y13	Z13	X14	Y14	Z14	X15	Y15	Z15	X16	Y16	Z16	X17	Y17	Z17	X18	Y18	Z18	X19	Y19	Z19	X20	Y20	Z20	X21	Y21	Z21	X22	Y22	Z22	X23	Y23	Z23	X24	Y24	Z24	X25	Y25	Z25	X26	Y26	Z26	X27	Y27	Z27	X28	Y28	Z28	X29	Y29	Z29	X30	Y30	Z30	X31	Y31	Z31	X32	Y32	Z32	X33	Y33	Z33	X34	Y34	Z34	X35	Y35	Z35	X36	Y36	Z36	X37	Y37	Z37	X38	Y38	Z38	X39	Y39	Z39	X40	Y40	Z40	X41	Y41	Z41	X42	Y42	Z42	X43	Y43	Z43	X44	Y44	Z44	X45	Y45	Z45	X46	Y46	Z46	X47	Y47	Z47	X48	Y48	Z48	X49	Y49	Z49	X50	Y50	Z50	X51	Y51	Z51	X52	Y52	Z52	X53	Y53	Z53	

228	2.27	-397.6878967285156	932.8443603515625	-67.96768188476562	-370.4884643554688	915.3753051757812	-206.3628387451172	-378.1355590820312	1030.001953125	-103.4022903442383	-99.99224090576172	1226.258422851562	-93.33956146240234	-385.6122436523438	1155.216674804688	-96.14595794677734	-318.0438537597656	1421.917236328125	-78.25044250488281	-135.2853698730469	1339.366577148438	-103.9123153686523	-373.4993286132812	1307.019897460938	22.40126037597656	-359.7053833007812	1370.687866210938	-171.8957977294922	-264.1507568359375	1391.929931640625	-258.5925598144531	-290.3945922851562	1282.8271484375	-357.9794921875	-285.1620178222656	1075.409423828125	-415.4416198730469	-354.7605285644531	1057.50830078125	-341.010009765625	-200.9644165039062	872.5917358398438	-402.1880798339844	-256.6611022949219	858.8739013671875	-451.6889953613281	-266.8952331542969	989.0498657226562	-436.2406311035156	-190.7017211914062	715.4502563476562	-422.2489318847656	-247.3655242919922	781.1998901367188	-456.3079528808594	-184.9720764160156	790.43408203125	-420.4052124023438	-237.9817810058594	1404.726440429688	72.50675964355469	-246.4571533203125	1358.305053710938	156.3016052246094	-185.2051086425781	1102.607421875	280.7617797851562	-234.1190948486328	1064.081420898438	255.1741638183594	-28.54508018493652	938.6279907226562	249.7839050292969	-74.41102600097656	910.7227172851562	319.581298828125	-161.3480072021484	1050.784301757812	299.2282409667969	47.23249435424805	808.332275390625	280.3144836425781	31.39522933959961	866.5928955078125	272.9292907714844	-19.35918426513672	841.8704833984375	327.1474609375	-180.9324645996094	1626.83984375	-33.76013946533203	-136.3677215576172	1610.57080078125	-235.0669708251953	-74.36407470703125	1625.63427734375	-121.1865539550781	-279.3767700195312	1612.218017578125	-180.8625183105469	-201.7128448486328	827.7083129882812	-293.013916015625	-308.1692504882812	841.330810546875	93.78528594970703	-192.7190399169922	880.4434204101562	52.91446685791016	-134.3379974365234	876.1121215820312	-193.3741455078125	2.407961368560791	463.5812377929688	-258.3338623046875	-47.84396362304688	610.5728759765625	-277.7254943847656	54.09881973266602	46.48897933959961	-246.0561218261719	35.77658081054688	315.802490234375	-271.6849670410156	270.7925109863281	129.5235137939453	-208.734619140625	209.8169555664062	100.9027786254883	-169.5895233154297	188.1798248291016	100.4363708496094	-278.6279296875	19.23183822631836	39.98659133911133	-175.6509399414062	-282.3699035644531	447.4590148925781	73.99970245361328	-265.3463134765625	707.27587890625	110.066780090332	-435.2225341796875	48.15480804443359	67.21004486083984	-312.4024963378906	301.1228942871094	78.24337768554688	-219.214111328125	44.3568000793457	12.96657371520996	-285.7979736328125	48.93784332275391	-18.75461578369141	-301.5206604003906	46.59380340576172	89.24209594726562	-502.1033935546875	42.35360336303711	23.13118743896484	
229	2.28	-387.1638488769531	930.3196411132812	-69.97106170654297	-359.3780517578125	912.2125244140625	-208.1221923828125	-367.9344482421875	1026.99755859375	-105.4826431274414	-90.33408355712891	1223.547119140625	-95.64386749267578	-375.70361328125	1152.232299804688	-98.3031005859375	-308.5326843261719	1418.990844726562	-80.44894409179688	-125.7505493164062	1336.567626953125	-106.7921142578125	-363.4448852539062	1304.29931640625	20.64521026611328	-350.491455078125	1367.397094726562	-173.6641387939453	-255.5233306884766	1388.673706054688	-260.9771118164062	-283.0791015625	1279.642333984375	-359.9895935058594	-279.6907043457031	1072.57421875	-418.0136108398438	-348.2808837890625	1054.978881835938	-342.4857788085938	-197.3331298828125	868.8827514648438	-407.0181274414062	-254.2202911376953	855.9801635742188	-455.567626953125	-262.5838317871094	986.1572265625	-439.4499206542969	-189.1073303222656	711.7581787109375	-428.2782897949219	-245.5613708496094	778.2825317382812	-460.8707885742188	-182.5168304443359	786.6758422851562	-426.0091247558594	-227.614990234375	1402.258666992188	69.96947479248047	-235.1653900146484	1355.833740234375	153.9237670898438	-169.2818450927734	1100.940307617188	277.7952880859375	-218.4895172119141	1061.841552734375	253.6443634033203	-11.33050537109375	939.16650390625	241.9837341308594	-54.48888778686523	910.6903076171875	313.2526245117188	-144.1421203613281	1049.47412109375	295.5323181152344	67.04067230224609	809.8322143554688	269.8206481933594	50.23528289794922	867.8868408203125	263.0528564453125	1.698261737823486	842.548583984375	318.9677124023438	-171.8787536621094	1624.507202148438	-37.99105453491211	-129.4282989501953	1607.58349609375	-239.6492462158203	-66.28485107421875	1623.627319335938	-126.511100769043	-271.837890625	1608.502319335938	-183.9196929931641	-190.9129638671875	824.2056274414062	-293.8448791503906	-298.923095703125	839.5798950195312	92.62474822998047	-182.9999847412109	877.9706420898438	52.26821136474609	-123.1653137207031	872.6617431640625	-194.0313720703125	12.88102722167969	460.9246520996094	-260.5191650390625	-38.71031951904297	606.4267578125	-279.4816589355469	84.01203155517578	48.19012451171875	-250.0846099853516	52.50355911254883	316.1418151855469	-274.6181945800781	297.4513549804688	139.4862060546875	-215.0779113769531	238.4186706542969	108.2188262939453	-175.4314422607422	215.2567138671875	107.6499557495117	-284.1457824707031	50.07649993896484	40.10329818725586	-179.0384063720703	-277.1538696289062	445.7435607910156	73.74212646484375	-257.2991638183594	705.4086303710938	109.1979904174805	-435.2522583007812	48.21308135986328	66.40914154052734	-309.1124572753906	299.7175903320312	78.00414276123047	-218.9136657714844	44.12462615966797	13.13333797454834	-285.5039978027344	48.93101119995117	-18.81460189819336	-301.6461486816406	46.59194183349609	89.14605712890625	-501.9520263671875	42.79775238037109	21.91649627685547	
230	2.29	-376.4851379394531	927.7031860351562	-71.88159942626953	-348.2705993652344	908.9425048828125	-209.810546875	-357.5637817382812	1023.860778808594	-107.534294128418	-80.53029632568359	1220.79443359375	-98.19035339355469	-365.721923828125	1149.121704101562	-100.4889450073242	-298.9444274902344	1415.968139648438	-82.83445739746094	-116.1271286010742	1333.714477539062	-109.9004440307617	-353.2588195800781	1301.432739257812	18.7305908203125	-341.2502136230469	1364.066650390625	-175.6509246826172	-246.8473968505859	1385.316284179688	-263.5712280273438	-275.7409057617188	1276.294921875	-362.1212463378906	-274.2143859863281	1069.592529296875	-420.6727600097656	-341.7354125976562	1052.32421875	-344.0439758300781	-193.778076171875	865.0711059570312	-411.9129638671875	-251.8637390136719	852.9783325195312	-459.3744201660156	-258.2880859375	983.1338500976562	-442.6968994140625	-187.6606140136719	707.9705200195312	-434.3283081054688	-243.8150329589844	775.2587890625	-465.4377136230469	-180.1758422851562	782.8087158203125	-431.6195373535156	-217.1487274169922	1399.671997070312	67.23686218261719	-223.7233734130859	1353.183959960938	151.3111724853516	-153.0340423583984	1099.139404296875	274.3959655761719	-202.4905548095703	1059.47802734375	251.6562194824219	5.939615249633789	939.4655151367188	233.7666625976562	-34.51802825927734	910.5482177734375	306.4266662597656	-126.6490631103516	1048.065307617188	291.3609924316406	86.62592315673828	811.0613403320312	258.9678344726562	68.959228515625	868.89892578125	252.7815399169922	22.64946937561035	843.0820922851562	310.32861328125	-162.7190399169922	1622.109375	-42.41071701049805	-122.5377578735352	1604.501831054688	-244.4132232666016	-58.17094802856445	1621.545532226562	-132.0897369384766	-264.2652587890625	1604.745727539062	-187.0979919433594	-180.0808715820312	820.7040405273438	-294.73779296875	-289.3813781738281	837.808837890625	91.56018829345703	-173.0588989257812	875.4497680664062	51.51035308837891	-111.9740676879883	869.1748657226562	-194.8065185546875	23.34874153137207	458.2436828613281	-262.7440185546875	-29.35826683044434	602.2841186523438	-281.3981628417969	111.9331970214844	50.32914352416992	-253.9622497558594	68.37667846679688	316.5129699707031	-277.5867614746094	322.2048645019531	149.0711669921875	-222.1349792480469	265.2606506347656	115.5183944702148	-181.7755279541016	240.2176513671875	114.6218948364258	-290.0238647460938	79.25189208984375	40.94893264770508	-182.2270355224609	-272.0018920898438	444.0711669921875	73.35297393798828	-248.9443511962891	703.5132446289062	108.2542572021484	-435.312744140625	48.25657653808594	65.39595031738281	-305.8898315429688	298.4048767089844	77.6357421875	-218.5670928955078	43.88057327270508	13.3030252456665	-285.146484375	48.90077590942383	-18.91599464416504	-301.8211364746094	46.62619781494141	88.96810150146484	-501.76220703125	43.30392456054688	20.41576385498047	
231	2.3	-365.6610412597656	925.024169921875	-73.68340301513672	-337.1840515136719	905.5977172851562	-211.4133911132812	-347.03466796875	1020.631286621094	-109.5168991088867	-70.5784912109375	1218.042114257812	-101.0252532958984	-355.6622314453125	1145.91796875	-102.6655654907227	-289.2740783691406	1412.882690429688	-85.40986633300781	-106.4216003417969	1330.849487304688	-113.2685699462891	-342.908203125	1298.461547851562	16.67181205749512	-331.9928588867188	1360.730224609375	-177.8568572998047	-238.1381683349609	1381.890747070312	-266.3832092285156	-268.3752746582031	1272.817138671875	-364.3898620605469	-268.7162170410156	1066.494506835938	-423.4148864746094	-335.1097412109375	1049.570068359375	-345.6878662109375	-190.2505035400391	861.189697265625	-416.8388366699219	-249.5558013916016	849.891845703125	-463.0925598144531	-253.9829864501953	980.0059204101562	-445.965087890625	-186.3381195068359	704.1113891601562	-440.3469543457031	-242.1215972900391	772.1594848632812	-469.9671936035156	-177.9222412109375	778.8543701171875	-437.1885375976562	-206.5536804199219	1397.015014648438	64.29380798339844	-212.1053771972656	1350.409790039062	148.4539642333984	-136.5140380859375	1097.223266601562	270.5408325195312	-186.166015625	1057.01220703125	249.1545562744141	23.24337005615234	939.5603637695312	225.1351928710938	-14.5558500289917	910.2941284179688	299.0788879394531	-108.9340286254883	1046.56787109375	286.6943969726562	106.0061645507812	812.0615234375	247.7740173339844	87.56179809570312	869.6738891601562	242.1375732421875	43.45758819580078	843.4735717773438	301.2204284667969	-153.4548034667969	1619.665405273438	-47.02167892456055	-115.6729049682617	1601.3740234375	-249.3667144775391	-50.01829147338867	1619.412475585938	-137.9203186035156	-256.6525268554688	1600.993041992188	-190.4085083007812	-169.2387084960938	817.2501220703125	-295.7003784179688	-279.5450134277344	836.0299072265625	90.59052276611328	-162.8749542236328	872.9117431640625	50.61586380004883	-100.7793273925781	865.7240600585938	-195.726806640625	33.86635971069336	455.5752868652344	-264.9738159179688	-19.75668525695801	598.2396850585938	-283.43798828125	137.7604217529297	52.62175369262695	-257.6324768066406	83.41719055175781	316.8172302246094	-280.5603637695312	345.0308532714844	157.9263763427734	-229.9932403564453	290.3026123046875	122.4953689575195	-188.6679382324219	262.9884948730469	120.9967880249023	-296.2726440429688	106.690299987793	42.27929306030273	-185.2025756835938	-266.8917541503906	442.4714050292969	72.8065185546875	-240.2813720703125	701.6058959960938	107.2349395751953	-435.4013061523438	48.32064819335938	64.13461303710938	-302.7419738769531	297.2215270996094	77.10494995117188	-218.1770782470703	43.63019180297852	13.48238182067871	-284.7237854003906	48.84005737304688	-19.07282257080078	-302.0516662597656	46.7057991027832	88.68795776367188	-501.5293273925781	43.91149520874023	18.58344841003418	
